<svg width="218" height="279" viewBox="0 0 218 279" fill="none" xmlns="http://www.w3.org/2000/svg">
<path fill-rule="evenodd" clip-rule="evenodd" d="M143.611 20.4375C143.608 20.4376 143.605 20.4378 143.602 20.438C143.555 20.4418 143.511 20.4607 143.475 20.492L44.4895 116.78C44.0033 117.254 43.6698 117.862 43.532 118.527C43.3942 119.192 43.4582 119.883 43.716 120.512C43.9737 121.14 44.4134 121.677 44.9785 122.053C45.5436 122.43 46.2084 122.629 46.8875 122.625H91.6865C93.3631 122.625 95.0138 123.038 96.4931 123.827C97.9724 124.616 99.2349 125.757 100.169 127.149C101.104 128.541 101.681 130.142 101.851 131.809C102.02 133.477 101.777 135.161 101.142 136.713L77.8026 193.775L172.932 101.22C173.418 100.747 173.751 100.14 173.889 99.4758C174.027 98.8122 173.964 98.1223 173.708 97.4946C173.452 96.8669 173.015 96.3299 172.452 95.9523C171.889 95.5747 171.226 95.3737 170.548 95.375H125.749C124.04 95.3751 122.357 94.9464 120.857 94.1281C119.356 93.3098 118.084 92.1281 117.158 90.6911C116.232 89.2541 115.682 87.6078 115.557 85.9029C115.432 84.198 115.737 82.4891 116.443 80.9325L143.802 20.7372L143.843 20.6555C143.835 20.6107 143.817 20.5685 143.789 20.5328C143.767 20.5001 143.74 20.4722 143.707 20.4511L143.602 20.438L143.611 20.4375ZM129.21 5.85871C132.661 2.50853 137.173 0.467817 141.968 0.0885663C146.763 -0.290685 151.54 1.01531 155.475 3.78127C159.41 6.54724 162.256 10.5998 163.523 15.2398C164.79 19.8799 164.398 24.8166 162.414 29.1983L141.622 74.9375H170.548C191.939 74.9375 202.512 100.948 187.171 115.867L87.163 213.177C83.9856 216.268 79.7284 217.998 75.2956 218H71.1809C68.3868 218 65.6357 217.312 63.17 215.998C60.7044 214.684 58.6 212.783 57.0424 210.463C55.4848 208.144 54.5217 205.476 54.2382 202.697C53.9547 199.917 54.3595 197.11 55.4168 194.524L76.4674 143.062H46.8875C25.4963 143.062 14.9233 117.052 30.265 102.133L129.196 5.84509L129.21 5.85871Z" fill="#FFEF61"/>
<path d="M36.236 244.268L26.876 244.772L24.932 249.632L22.268 249.272L23.096 242.18H41.348L42.212 244.088L29.18 264.32L26.696 266.804L37.784 266.084L39.8 260.504L42.536 261.044L41.708 269H21.908L20.792 267.092L34.112 246.752L36.236 244.268ZM44.8138 263.384C44.8138 261.2 45.9058 259.556 48.0898 258.452C50.2978 257.348 53.1418 256.784 56.6218 256.76V255.932C56.6218 254.948 56.5138 254.18 56.2978 253.628C56.1058 253.076 55.7338 252.668 55.1818 252.404C54.6538 252.116 53.8738 251.972 52.8418 251.972C51.6658 251.972 50.6098 252.128 49.6738 252.44C48.7378 252.728 47.7658 253.112 46.7578 253.592L45.6418 251.288C46.0018 250.976 46.6018 250.604 47.4418 250.172C48.3058 249.74 49.3258 249.368 50.5018 249.056C51.6778 248.72 52.8898 248.552 54.1378 248.552C55.9858 248.552 57.4258 248.792 58.4578 249.272C59.5138 249.752 60.2698 250.52 60.7258 251.576C61.1818 252.632 61.4098 254.048 61.4098 255.824V266.84H63.3538V268.856C62.8738 268.976 62.1898 269.096 61.3018 269.216C60.4138 269.336 59.6338 269.396 58.9618 269.396C58.1458 269.396 57.5938 269.276 57.3058 269.036C57.0418 268.796 56.9098 268.304 56.9098 267.56V266.588C56.2618 267.308 55.4218 267.956 54.3898 268.532C53.3578 269.108 52.1938 269.396 50.8978 269.396C49.7938 269.396 48.7738 269.168 47.8378 268.712C46.9258 268.232 46.1938 267.548 45.6418 266.66C45.0898 265.748 44.8138 264.656 44.8138 263.384ZM53.2018 266.408C53.7058 266.408 54.2818 266.264 54.9298 265.976C55.5778 265.664 56.1418 265.292 56.6218 264.86V258.956C54.4618 258.956 52.8418 259.328 51.7618 260.072C50.7058 260.792 50.1778 261.728 50.1778 262.88C50.1778 264.032 50.4418 264.908 50.9698 265.508C51.5218 266.108 52.2658 266.408 53.2018 266.408ZM85.5085 258.344C85.5085 260.36 85.0885 262.208 84.2485 263.888C83.4325 265.568 82.2205 266.912 80.6125 267.92C79.0285 268.904 77.1325 269.396 74.9245 269.396C74.4445 269.396 73.9405 269.348 73.4125 269.252C72.9085 269.18 72.5005 269.084 72.1885 268.964L72.2965 271.952V275.228L75.6445 275.66V277.712H64.9525V275.66L67.2925 275.228V252.404L64.9525 251.756V249.272L70.8925 248.516H70.9645L71.8645 249.236V251.252C72.4645 250.508 73.2805 249.86 74.3125 249.308C75.3445 248.756 76.4725 248.48 77.6965 248.48C79.9765 248.48 81.8485 249.296 83.3125 250.928C84.7765 252.536 85.5085 255.008 85.5085 258.344ZM75.8245 251.468C75.1045 251.468 74.4205 251.624 73.7725 251.936C73.1245 252.248 72.6325 252.596 72.2965 252.98V266.336C72.4645 266.576 72.8005 266.78 73.3045 266.948C73.8325 267.116 74.4085 267.2 75.0325 267.2C76.5925 267.2 77.8285 266.528 78.7405 265.184C79.6765 263.816 80.1445 261.68 80.1445 258.776C80.1445 256.328 79.7485 254.504 78.9565 253.304C78.1645 252.08 77.1205 251.468 75.8245 251.468ZM88.236 266.84L91.08 266.48V244.952L88.38 244.448V242.252H93.6C94.056 242.252 94.56 242.24 95.112 242.216C95.664 242.192 96.084 242.168 96.372 242.144C97.62 242.048 98.652 242 99.468 242C101.94 242 103.92 242.252 105.408 242.756C106.896 243.26 107.976 244.028 108.648 245.06C109.32 246.092 109.656 247.448 109.656 249.128C109.656 250.784 109.212 252.32 108.324 253.736C107.436 255.152 106.152 256.124 104.472 256.652C105.432 257.06 106.284 257.804 107.028 258.884C107.772 259.964 108.564 261.368 109.404 263.096C110.004 264.272 110.46 265.124 110.772 265.652C111.108 266.156 111.432 266.444 111.744 266.516L112.932 266.876V269H106.812C106.428 269 106.02 268.616 105.588 267.848C105.18 267.056 104.64 265.82 103.968 264.14C103.176 262.172 102.492 260.636 101.916 259.532C101.34 258.428 100.728 257.744 100.08 257.48H96.372V266.48L99.684 266.84V269H88.236V266.84ZM99.684 255.284C101.052 255.284 102.12 254.792 102.888 253.808C103.656 252.824 104.04 251.348 104.04 249.38C104.04 247.628 103.656 246.332 102.888 245.492C102.144 244.652 100.848 244.232 99 244.232C98.328 244.232 97.752 244.268 97.272 244.34C96.816 244.388 96.516 244.412 96.372 244.412V255.212C96.66 255.26 97.356 255.284 98.46 255.284H99.684ZM123.469 269.396C120.301 269.396 117.937 268.472 116.377 266.624C114.841 264.752 114.073 262.208 114.073 258.992C114.073 256.832 114.469 254.96 115.261 253.376C116.077 251.792 117.217 250.58 118.681 249.74C120.145 248.9 121.837 248.48 123.757 248.48C126.157 248.48 128.005 249.116 129.301 250.388C130.597 251.636 131.269 253.424 131.317 255.752C131.317 257.336 131.221 258.512 131.029 259.28H119.329C119.425 261.464 119.941 263.168 120.877 264.392C121.813 265.592 123.145 266.192 124.873 266.192C125.809 266.192 126.769 266.036 127.753 265.724C128.761 265.412 129.553 265.04 130.129 264.608L131.029 266.588C130.381 267.284 129.325 267.932 127.861 268.532C126.421 269.108 124.957 269.396 123.469 269.396ZM126.277 257.12C126.325 256.448 126.349 255.932 126.349 255.572C126.349 252.38 125.281 250.784 123.145 250.784C121.969 250.784 121.057 251.252 120.409 252.188C119.761 253.124 119.401 254.768 119.329 257.12H126.277ZM133.722 259.1C133.722 257.036 134.13 255.2 134.946 253.592C135.786 251.984 136.974 250.736 138.51 249.848C140.07 248.936 141.882 248.48 143.946 248.48C144.906 248.48 145.734 248.552 146.43 248.696C147.126 248.84 147.906 249.032 148.77 249.272L149.814 249.56L149.598 255.716H146.466L145.566 251.756C145.422 251.132 144.714 250.82 143.442 250.82C142.098 250.82 141.042 251.408 140.274 252.584C139.53 253.76 139.146 255.596 139.122 258.092C139.122 260.732 139.578 262.76 140.49 264.176C141.402 265.568 142.614 266.264 144.126 266.264C145.95 266.264 147.63 265.772 149.166 264.788L149.994 266.66C149.37 267.332 148.41 267.956 147.114 268.532C145.842 269.108 144.462 269.396 142.974 269.396C139.902 269.396 137.586 268.448 136.026 266.552C134.49 264.656 133.722 262.172 133.722 259.1ZM152.462 263.384C152.462 261.2 153.554 259.556 155.738 258.452C157.946 257.348 160.79 256.784 164.27 256.76V255.932C164.27 254.948 164.162 254.18 163.946 253.628C163.754 253.076 163.382 252.668 162.83 252.404C162.302 252.116 161.522 251.972 160.49 251.972C159.314 251.972 158.258 252.128 157.322 252.44C156.386 252.728 155.414 253.112 154.406 253.592L153.29 251.288C153.65 250.976 154.25 250.604 155.09 250.172C155.954 249.74 156.974 249.368 158.15 249.056C159.326 248.72 160.538 248.552 161.786 248.552C163.634 248.552 165.074 248.792 166.106 249.272C167.162 249.752 167.918 250.52 168.374 251.576C168.83 252.632 169.058 254.048 169.058 255.824V266.84H171.002V268.856C170.522 268.976 169.838 269.096 168.95 269.216C168.062 269.336 167.282 269.396 166.61 269.396C165.794 269.396 165.242 269.276 164.954 269.036C164.69 268.796 164.558 268.304 164.558 267.56V266.588C163.91 267.308 163.07 267.956 162.038 268.532C161.006 269.108 159.842 269.396 158.546 269.396C157.442 269.396 156.422 269.168 155.486 268.712C154.574 268.232 153.842 267.548 153.29 266.66C152.738 265.748 152.462 264.656 152.462 263.384ZM160.85 266.408C161.354 266.408 161.93 266.264 162.578 265.976C163.226 265.664 163.79 265.292 164.27 264.86V258.956C162.11 258.956 160.49 259.328 159.41 260.072C158.354 260.792 157.826 261.728 157.826 262.88C157.826 264.032 158.09 264.908 158.618 265.508C159.17 266.108 159.914 266.408 160.85 266.408ZM175.337 242.684L172.673 242.216V240.272L179.333 239.48H179.405L180.377 240.164V266.552L183.005 266.84V269H172.817V266.84L175.337 266.516V242.684ZM187.571 242.684L184.907 242.216V240.272L191.567 239.48H191.639L192.611 240.164V266.552L195.239 266.84V269H185.051V266.84L187.571 266.516V242.684Z" fill="black"/>
</svg>
