<svg width="36" height="36" viewBox="0 0 36 36" fill="none" xmlns="http://www.w3.org/2000/svg">
<path d="M36 18C36 27.941 27.941 36 18 36C8.06 36 0 27.941 0 18C0 8.06 8.06 0 18 0C27.941 0 36 8.06 36 18Z" fill="#FFCC4D"/>
<path d="M11.5 20C12.8807 20 14 18.433 14 16.5C14 14.567 12.8807 13 11.5 13C10.1193 13 9 14.567 9 16.5C9 18.433 10.1193 20 11.5 20Z" fill="#664500"/>
<path d="M24.5 20C25.8807 20 27 18.433 27 16.5C27 14.567 25.8807 13 24.5 13C23.1193 13 22 14.567 22 16.5C22 18.433 23.1193 20 24.5 20Z" fill="#664500"/>
<path d="M23.4852 27.879C23.4742 27.835 22.3402 23.5 18.0002 23.5C13.6602 23.5 12.5262 27.835 12.5152 27.879C12.4903 27.9826 12.4994 28.0914 12.5412 28.1894C12.583 28.2873 12.6552 28.3693 12.7472 28.423C12.8401 28.4771 12.9479 28.5005 13.0549 28.4897C13.162 28.4789 13.2629 28.4346 13.3432 28.363C13.3522 28.356 14.3562 27.5 18.0002 27.5C21.5902 27.5 22.6172 28.33 22.6562 28.363C22.7334 28.4373 22.8327 28.4845 22.939 28.4977C23.0454 28.5108 23.1531 28.4892 23.2462 28.436C23.3415 28.3821 23.4165 28.2985 23.4597 28.1978C23.5029 28.0972 23.5118 27.9852 23.4852 27.879Z" fill="#664500"/>
<path d="M10 30C10 32.762 7.762 35 5 35C2.238 35 0 32.762 0 30C0 27.238 4 20 5 20C6 20 10 27.238 10 30Z" fill="#5DADEC"/>
<path d="M30 13C24.446 13 22.198 8.633 22.105 8.447C21.9858 8.21003 21.9656 7.93541 22.0489 7.68354C22.1321 7.43168 22.312 7.22321 22.549 7.104C22.786 6.98479 23.0606 6.96459 23.3125 7.04786C23.5643 7.13112 23.7728 7.31103 23.892 7.548C23.967 7.694 25.713 11 30 11C30.2652 11 30.5196 11.1054 30.7071 11.2929C30.8946 11.4804 31 11.7348 31 12C31 12.2652 30.8946 12.5196 30.7071 12.7071C30.5196 12.8946 30.2652 13 30 13ZM6 13C5.73478 13 5.48043 12.8946 5.29289 12.7071C5.10536 12.5196 5 12.2652 5 12C5 11.7348 5.10536 11.4804 5.29289 11.2929C5.48043 11.1054 5.73478 11 6 11C11.083 11 11.996 7.88 12.033 7.747C12.178 7.219 12.723 6.899 13.252 7.038C13.782 7.177 14.103 7.711 13.97 8.243C13.921 8.437 12.704 13 6 13Z" fill="#664500"/>
</svg>
