<svg width="36" height="36" viewBox="0 0 36 36" fill="none" xmlns="http://www.w3.org/2000/svg">
<g clip-path="url(#clip0_12_286)">
<path d="M17 36C26.3888 36 34 28.3888 34 19C34 9.61116 26.3888 2 17 2C7.61116 2 0 9.61116 0 19C0 28.3888 7.61116 36 17 36Z" fill="#FFCC4D"/>
<path d="M17.999 28.5C19.1036 28.5 19.999 27.3807 19.999 26C19.999 24.6193 19.1036 23.5 17.999 23.5C16.8945 23.5 15.999 24.6193 15.999 26C15.999 27.3807 16.8945 28.5 17.999 28.5Z" fill="#664500"/>
<path d="M8.11095 21.383C7.93224 21.3828 7.75684 21.3347 7.60302 21.2437C7.4492 21.1528 7.32256 21.0222 7.23629 20.8657C7.15002 20.7092 7.10727 20.5325 7.11249 20.3538C7.1177 20.1752 7.17069 20.0012 7.26595 19.85C8.18195 18.397 10.9669 15.912 14.9559 16.888C15.2082 16.9559 15.4239 17.1199 15.5568 17.3449C15.6898 17.5698 15.7294 17.8379 15.6672 18.0917C15.605 18.3454 15.4459 18.5648 15.224 18.7028C15.0021 18.8408 14.7351 18.8864 14.4799 18.83C10.8759 17.948 8.97795 20.886 8.95895 20.916C8.86863 21.0592 8.74346 21.1772 8.59516 21.2588C8.44685 21.3405 8.28025 21.3832 8.11095 21.383ZM20.0839 17.641C19.8776 17.6412 19.6762 17.5775 19.5075 17.4587C19.3388 17.3399 19.2109 17.1719 19.1415 16.9775C19.072 16.7832 19.0644 16.5722 19.1196 16.3734C19.1748 16.1745 19.2902 15.9977 19.4499 15.867C22.6259 13.263 26.2119 14.305 27.6649 15.221C27.8896 15.3621 28.049 15.5866 28.108 15.8453C28.1671 16.1039 28.121 16.3754 27.9799 16.6C27.8389 16.8246 27.6143 16.984 27.3557 17.0431C27.0971 17.1022 26.8256 17.0561 26.6009 16.915C26.4629 16.831 23.5489 15.092 20.7169 17.414C20.5388 17.5611 20.3149 17.6413 20.0839 17.641Z" fill="#664500"/>
<path d="M13.3461 31.273C13.2301 31.273 13.1158 31.2462 13.0119 31.1946C12.9081 31.143 12.8177 31.068 12.7477 30.9756C12.6778 30.8832 12.6302 30.7758 12.6087 30.6618C12.5873 30.5479 12.5925 30.4306 12.6241 30.319C13.0611 28.779 12.8821 27.29 12.1341 26.233C11.6371 25.531 10.9291 25.102 10.1911 25.055C9.77705 25.03 9.46305 24.673 9.48905 24.26C9.51505 23.847 9.87005 23.509 10.2841 23.559C11.4771 23.633 12.5971 24.292 13.3571 25.366C14.3681 26.795 14.6271 28.749 14.0661 30.727C14.0219 30.884 13.9276 31.0223 13.7977 31.1208C13.6677 31.2194 13.5091 31.2728 13.3461 31.273ZM24.3831 28.212C24.2365 28.2121 24.0932 28.169 23.9711 28.088C22.8041 27.318 22.1511 25.971 22.1791 24.393C22.2081 22.758 22.9881 21.24 24.1631 20.524C24.2471 20.4726 24.3405 20.4384 24.4378 20.4232C24.5351 20.408 24.6345 20.4122 24.7302 20.4355C24.8259 20.4588 24.9161 20.5008 24.9955 20.5591C25.0749 20.6174 25.1421 20.6907 25.1931 20.775C25.2444 20.8591 25.2787 20.9524 25.2939 21.0497C25.309 21.1471 25.3049 21.2464 25.2815 21.3421C25.2582 21.4378 25.2162 21.528 25.158 21.6074C25.0997 21.6869 25.0263 21.754 24.9421 21.805C24.2071 22.253 23.6981 23.304 23.6781 24.419C23.6581 25.474 24.0671 26.355 24.7961 26.836C24.9307 26.9248 25.033 27.0547 25.088 27.2063C25.143 27.3579 25.1477 27.5231 25.1013 27.6776C25.055 27.8321 24.9601 27.9675 24.8307 28.0637C24.7013 28.16 24.5443 28.212 24.3831 28.212Z" fill="#E2A62D"/>
<path d="M17.1789 2.72C17.1277 2.66961 17.0612 2.63761 16.9899 2.629C16.9899 2.629 1.06588 -0.394 0.376878 0.214C-0.311122 0.823 0.739878 16.998 0.739878 16.998C0.744878 17.079 0.762878 17.148 0.806878 17.197C1.41088 17.881 5.56488 15.193 10.0859 11.196C14.6079 7.198 17.7829 3.404 17.1789 2.72Z" fill="#DD2E44"/>
<path d="M0.349035 0.271C0.33097 0.310133 0.318192 0.351496 0.311035 0.394C0.470035 1.765 2.00604 13.046 2.96304 16.572C4.39903 15.769 5.85804 14.678 7.57204 13.319C6.11604 10.654 1.15804 0.146 0.349035 0.271Z" fill="#EA596E"/>
<path d="M29.9021 29.229L19.3291 27.926C18.1991 27.824 16.2121 27.814 16.3141 26.024C16.4071 24.401 18.3541 24.651 19.7931 24.864L30.4311 26.638L29.9021 29.229Z" fill="#3B88C3"/>
<path d="M30.4299 26.639L26.2079 25.915C25.7139 25.826 25.2739 26.562 25.2519 27.341C25.2269 28.207 25.4789 28.645 25.9779 28.747L30.1219 29.259L30.4299 26.639Z" fill="#88C9F9"/>
<path d="M34.9179 26.341L32.2959 28.752L27.6089 23.655L30.2309 21.244C30.8884 20.6428 31.7572 20.3262 32.6474 20.3635C33.5376 20.4008 34.3769 20.7889 34.9819 21.443L35.1169 21.59C35.7179 22.2477 36.0343 23.1164 35.997 24.0065C35.9597 24.8967 35.5718 25.7359 34.9179 26.341Z" fill="#3B88C3"/>
<path d="M32.2944 28.7534C33.4205 27.7179 33.2844 25.7375 31.9902 24.33C30.6961 22.9225 28.7341 22.6209 27.6079 23.6564C26.4818 24.6918 26.6179 26.6722 27.9121 28.0797C29.2062 29.4872 31.1682 29.7888 32.2944 28.7534Z" fill="#88C9F9"/>
<path d="M31.357 27.7338C31.9201 27.2161 31.7472 26.1119 30.9708 25.2675C30.1944 24.423 29.1085 24.1582 28.5454 24.6759C27.9823 25.1937 28.1553 26.2979 28.9317 27.1423C29.7081 27.9867 30.7939 28.2516 31.357 27.7338Z" fill="#226699"/>
<path d="M2.5 35C3.32843 35 4 34.3284 4 33.5C4 32.6716 3.32843 32 2.5 32C1.67157 32 1 32.6716 1 33.5C1 34.3284 1.67157 35 2.5 35Z" fill="#55ACEE"/>
<path d="M29 4C30.1046 4 31 3.10457 31 2C31 0.89543 30.1046 0 29 0C27.8954 0 27 0.89543 27 2C27 3.10457 27.8954 4 29 4Z" fill="#55ACEE"/>
<path d="M4.86411 29.246L2.52611 23.63L0.412109 29.675L4.86411 29.246ZM26.0001 5L22.0001 6L23.0001 2L26.0001 5Z" fill="#EA596E"/>
<path d="M31.999 13L36 7.999L33 6L31.999 13Z" fill="#77B255"/>
</g>
<defs>
<clipPath id="clip0_12_286">
<rect width="36" height="36" fill="white"/>
</clipPath>
</defs>
</svg>
