<svg width="141" height="54" viewBox="0 0 141 54" fill="none" xmlns="http://www.w3.org/2000/svg">
<path fill-rule="evenodd" clip-rule="evenodd" d="M35.5735 5.06247C35.5727 5.0625 35.5719 5.06254 35.5712 5.0626C35.5595 5.06354 35.5485 5.06821 35.5397 5.07597L11.0204 28.9271C10.8999 29.0445 10.8173 29.1953 10.7832 29.36C10.749 29.5247 10.7649 29.6959 10.8288 29.8515C10.8926 30.0071 11.0015 30.1401 11.1415 30.2334C11.2815 30.3267 11.4461 30.376 11.6144 30.375H22.7114C23.1266 30.3751 23.5355 30.4773 23.902 30.6727C24.2684 30.8682 24.5811 31.1507 24.8126 31.4956C25.044 31.8404 25.1871 32.2369 25.2291 32.65C25.2711 33.0632 25.2109 33.4804 25.0536 33.8647L19.2722 47.9992L42.8365 25.0728C42.9567 24.9556 43.0392 24.8052 43.0735 24.6408C43.1077 24.4764 43.0921 24.3055 43.0287 24.15C42.9653 23.9945 42.8569 23.8615 42.7174 23.768C42.578 23.6744 42.4138 23.6246 42.2459 23.625H31.1489C30.7254 23.625 30.3087 23.5188 29.937 23.3161C29.5652 23.1134 29.2502 22.8207 29.0208 22.4647C28.7915 22.1088 28.6551 21.701 28.6241 21.2787C28.5932 20.8564 28.6687 20.433 28.8437 20.0475L35.6207 5.13672L35.6309 5.11647C35.629 5.10538 35.6243 5.09494 35.6174 5.0861C35.6121 5.07797 35.6052 5.07107 35.5971 5.06585L35.5712 5.0626L35.5735 5.06247ZM32.0061 1.45122C32.861 0.621359 33.9787 0.115861 35.1664 0.0219177C36.3542 -0.0720252 37.5374 0.251477 38.5122 0.936625C39.4869 1.62177 40.1919 2.62561 40.5057 3.77498C40.8195 4.92436 40.7223 6.1472 40.231 7.23259L35.0807 18.5625H42.2459C47.5446 18.5625 50.1636 25.0053 46.3634 28.701L21.5909 52.8052C20.8038 53.5708 19.7492 53.9994 18.6512 54H17.632C16.9399 53.9999 16.2584 53.8296 15.6476 53.5041C15.0369 53.1785 14.5156 52.7077 14.1298 52.1331C13.7439 51.5585 13.5054 50.8978 13.4352 50.2093C13.365 49.5207 13.4652 48.8255 13.7271 48.1848L18.9415 35.4375H11.6144C6.3156 35.4375 3.6966 28.9946 7.49685 25.299L32.0027 1.44785L32.0061 1.45122Z" fill="#FFEF61"/>
<path d="M69.216 22.008L65.056 22.232L64.192 24.392L63.008 24.232L63.376 21.08H71.488L71.872 21.928L66.08 30.92L64.976 32.024L69.904 31.704L70.8 29.224L72.016 29.464L71.648 33H62.848L62.352 32.152L68.272 23.112L69.216 22.008ZM73.0284 30.504C73.0284 29.5333 73.5137 28.8027 74.4844 28.312C75.4657 27.8213 76.7297 27.5707 78.2764 27.56V27.192C78.2764 26.7547 78.2284 26.4133 78.1324 26.168C78.047 25.9227 77.8817 25.7413 77.6364 25.624C77.4017 25.496 77.055 25.432 76.5964 25.432C76.0737 25.432 75.6044 25.5013 75.1884 25.64C74.7724 25.768 74.3404 25.9387 73.8924 26.152L73.3964 25.128C73.5564 24.9893 73.823 24.824 74.1964 24.632C74.5804 24.44 75.0337 24.2747 75.5564 24.136C76.079 23.9867 76.6177 23.912 77.1724 23.912C77.9937 23.912 78.6337 24.0187 79.0924 24.232C79.5617 24.4453 79.8977 24.7867 80.1004 25.256C80.303 25.7253 80.4044 26.3547 80.4044 27.144V32.04H81.2684V32.936C81.055 32.9893 80.751 33.0427 80.3564 33.096C79.9617 33.1493 79.615 33.176 79.3164 33.176C78.9537 33.176 78.7084 33.1227 78.5804 33.016C78.463 32.9093 78.4044 32.6907 78.4044 32.36V31.928C78.1164 32.248 77.743 32.536 77.2844 32.792C76.8257 33.048 76.3084 33.176 75.7324 33.176C75.2417 33.176 74.7884 33.0747 74.3724 32.872C73.967 32.6587 73.6417 32.3547 73.3964 31.96C73.151 31.5547 73.0284 31.0693 73.0284 30.504ZM76.7564 31.848C76.9804 31.848 77.2364 31.784 77.5244 31.656C77.8124 31.5173 78.063 31.352 78.2764 31.16V28.536C77.3164 28.536 76.5964 28.7013 76.1164 29.032C75.647 29.352 75.4124 29.768 75.4124 30.28C75.4124 30.792 75.5297 31.1813 75.7644 31.448C76.0097 31.7147 76.3404 31.848 76.7564 31.848ZM91.1149 28.264C91.1149 29.16 90.9282 29.9813 90.5549 30.728C90.1922 31.4747 89.6535 32.072 88.9389 32.52C88.2349 32.9573 87.3922 33.176 86.4109 33.176C86.1975 33.176 85.9735 33.1547 85.7389 33.112C85.5149 33.08 85.3335 33.0373 85.1949 32.984L85.2429 34.312V35.768L86.7309 35.96V36.872H81.9789V35.96L83.0189 35.768V25.624L81.9789 25.336V24.232L84.6189 23.896H84.6509L85.0509 24.216V25.112C85.3175 24.7813 85.6802 24.4933 86.1389 24.248C86.5975 24.0027 87.0989 23.88 87.6429 23.88C88.6562 23.88 89.4882 24.2427 90.1389 24.968C90.7895 25.6827 91.1149 26.7813 91.1149 28.264ZM86.8109 25.208C86.4909 25.208 86.1869 25.2773 85.8989 25.416C85.6109 25.5547 85.3922 25.7093 85.2429 25.88V31.816C85.3175 31.9227 85.4669 32.0133 85.6909 32.088C85.9255 32.1627 86.1815 32.2 86.4589 32.2C87.1522 32.2 87.7015 31.9013 88.1069 31.304C88.5229 30.696 88.7309 29.7467 88.7309 28.456C88.7309 27.368 88.5549 26.5573 88.2029 26.024C87.8509 25.48 87.3869 25.208 86.8109 25.208ZM92.3271 32.04L93.5911 31.88V22.312L92.3911 22.088V21.112H94.7111C94.9138 21.112 95.1378 21.1067 95.3831 21.096C95.6285 21.0853 95.8151 21.0747 95.9431 21.064C96.4978 21.0213 96.9565 21 97.3191 21C98.4178 21 99.2978 21.112 99.9591 21.336C100.62 21.56 101.1 21.9013 101.399 22.36C101.698 22.8187 101.847 23.4213 101.847 24.168C101.847 24.904 101.65 25.5867 101.255 26.216C100.86 26.8453 100.29 27.2773 99.5431 27.512C99.9698 27.6933 100.348 28.024 100.679 28.504C101.01 28.984 101.362 29.608 101.735 30.376C102.002 30.8987 102.204 31.2773 102.343 31.512C102.492 31.736 102.636 31.864 102.775 31.896L103.303 32.056V33H100.583C100.412 33 100.231 32.8293 100.039 32.488C99.8578 32.136 99.6178 31.5867 99.3191 30.84C98.9671 29.9653 98.6631 29.2827 98.4071 28.792C98.1511 28.3013 97.8791 27.9973 97.5911 27.88H95.9431V31.88L97.4151 32.04V33H92.3271V32.04ZM97.4151 26.904C98.0231 26.904 98.4978 26.6853 98.8391 26.248C99.1805 25.8107 99.3511 25.1547 99.3511 24.28C99.3511 23.5013 99.1805 22.9253 98.8391 22.552C98.5085 22.1787 97.9325 21.992 97.1111 21.992C96.8125 21.992 96.5565 22.008 96.3431 22.04C96.1405 22.0613 96.0071 22.072 95.9431 22.072V26.872C96.0711 26.8933 96.3805 26.904 96.8711 26.904H97.4151ZM107.986 33.176C106.578 33.176 105.528 32.7653 104.834 31.944C104.152 31.112 103.81 29.9813 103.81 28.552C103.81 27.592 103.986 26.76 104.338 26.056C104.701 25.352 105.208 24.8133 105.858 24.44C106.509 24.0667 107.261 23.88 108.114 23.88C109.181 23.88 110.002 24.1627 110.578 24.728C111.154 25.2827 111.453 26.0773 111.474 27.112C111.474 27.816 111.432 28.3387 111.346 28.68H106.146C106.189 29.6507 106.418 30.408 106.834 30.952C107.25 31.4853 107.842 31.752 108.61 31.752C109.026 31.752 109.453 31.6827 109.89 31.544C110.338 31.4053 110.69 31.24 110.946 31.048L111.346 31.928C111.058 32.2373 110.589 32.5253 109.938 32.792C109.298 33.048 108.648 33.176 107.986 33.176ZM109.234 27.72C109.256 27.4213 109.266 27.192 109.266 27.032C109.266 25.6133 108.792 24.904 107.842 24.904C107.32 24.904 106.914 25.112 106.626 25.528C106.338 25.944 106.178 26.6747 106.146 27.72H109.234ZM112.543 28.6C112.543 27.6827 112.725 26.8667 113.087 26.152C113.461 25.4373 113.989 24.8827 114.671 24.488C115.365 24.0827 116.17 23.88 117.087 23.88C117.514 23.88 117.882 23.912 118.191 23.976C118.501 24.04 118.847 24.1253 119.231 24.232L119.695 24.36L119.599 27.096H118.207L117.807 25.336C117.743 25.0587 117.429 24.92 116.863 24.92C116.266 24.92 115.797 25.1813 115.455 25.704C115.125 26.2267 114.954 27.0427 114.943 28.152C114.943 29.3253 115.146 30.2267 115.551 30.856C115.957 31.4747 116.495 31.784 117.167 31.784C117.978 31.784 118.725 31.5653 119.407 31.128L119.775 31.96C119.498 32.2587 119.071 32.536 118.495 32.792C117.93 33.048 117.317 33.176 116.655 33.176C115.29 33.176 114.261 32.7547 113.567 31.912C112.885 31.0693 112.543 29.9653 112.543 28.6ZM120.872 30.504C120.872 29.5333 121.357 28.8027 122.328 28.312C123.309 27.8213 124.573 27.5707 126.12 27.56V27.192C126.12 26.7547 126.072 26.4133 125.976 26.168C125.891 25.9227 125.725 25.7413 125.48 25.624C125.245 25.496 124.899 25.432 124.44 25.432C123.917 25.432 123.448 25.5013 123.032 25.64C122.616 25.768 122.184 25.9387 121.736 26.152L121.24 25.128C121.4 24.9893 121.667 24.824 122.04 24.632C122.424 24.44 122.877 24.2747 123.4 24.136C123.923 23.9867 124.461 23.912 125.016 23.912C125.837 23.912 126.477 24.0187 126.936 24.232C127.405 24.4453 127.741 24.7867 127.944 25.256C128.147 25.7253 128.248 26.3547 128.248 27.144V32.04H129.112V32.936C128.899 32.9893 128.595 33.0427 128.2 33.096C127.805 33.1493 127.459 33.176 127.16 33.176C126.797 33.176 126.552 33.1227 126.424 33.016C126.307 32.9093 126.248 32.6907 126.248 32.36V31.928C125.96 32.248 125.587 32.536 125.128 32.792C124.669 33.048 124.152 33.176 123.576 33.176C123.085 33.176 122.632 33.0747 122.216 32.872C121.811 32.6587 121.485 32.3547 121.24 31.96C120.995 31.5547 120.872 31.0693 120.872 30.504ZM124.6 31.848C124.824 31.848 125.08 31.784 125.368 31.656C125.656 31.5173 125.907 31.352 126.12 31.16V28.536C125.16 28.536 124.44 28.7013 123.96 29.032C123.491 29.352 123.256 29.768 123.256 30.28C123.256 30.792 123.373 31.1813 123.608 31.448C123.853 31.7147 124.184 31.848 124.6 31.848ZM131.039 21.304L129.855 21.096V20.232L132.815 19.88H132.847L133.279 20.184V31.912L134.447 32.04V33H129.919V32.04L131.039 31.896V21.304ZM136.476 21.304L135.292 21.096V20.232L138.252 19.88H138.284L138.716 20.184V31.912L139.884 32.04V33H135.356V32.04L136.476 31.896V21.304Z" fill="black"/>
</svg>
