<svg width="41" height="37" viewBox="0 0 41 37" fill="none" xmlns="http://www.w3.org/2000/svg">
<path d="M38.875 36.1094C38.6423 36.1094 38.4127 36.0564 38.2036 35.9544C37.9945 35.8524 37.8114 35.7041 37.6681 35.5208C35.4804 32.7196 33.4505 30.5576 30.6512 29.1087C28.0605 27.7717 24.8066 27.074 20.5 26.9439V34.5781C20.499 34.877 20.4107 35.1691 20.2458 35.4183C20.0808 35.6676 19.8466 35.8632 19.5718 35.9809C19.2971 36.0986 18.9939 36.1334 18.6997 36.0809C18.4055 36.0284 18.133 35.8909 17.916 35.6854L1.07222 19.6073C0.92254 19.4643 0.803399 19.2924 0.722 19.1021C0.640601 18.9118 0.598633 18.707 0.598633 18.5C0.598633 18.293 0.640601 18.0881 0.722 17.8978C0.803399 17.7075 0.92254 17.5357 1.07222 17.3927L17.916 1.31455C18.133 1.10906 18.4055 0.97159 18.6997 0.91908C18.9939 0.866571 19.2971 0.901321 19.5718 1.01905C19.8466 1.13677 20.0808 1.33233 20.2458 1.5816C20.4107 1.83086 20.499 2.12295 20.5 2.42184V10.1125C27.5954 10.4389 32.882 13.0707 36.2288 17.9478C39.0013 21.9874 40.4062 27.5822 40.4062 34.5781C40.4062 34.9842 40.2449 35.3737 39.9577 35.6609C39.6706 35.948 39.2811 36.1094 38.875 36.1094Z" fill="black"/>
</svg>
